<?xml version="1.0" standalone="no"?>
<!DOCTYPE svg PUBLIC "-//W3C//DTD SVG 20010904//EN"
 "http://www.w3.org/TR/2001/REC-SVG-20010904/DTD/svg10.dtd">
<svg version="1.0" xmlns="http://www.w3.org/2000/svg"
 width="626.000000pt" height="626.000000pt" viewBox="0 0 626.000000 626.000000"
 preserveAspectRatio="xMidYMid meet">
<metadata>
Created by potrace 1.11, written by Peter Selinger 2001-2013
</metadata>
<g transform="translate(0.000000,626.000000) scale(0.100000,-0.100000)"
fill="#000000" stroke="none">
<path d="M3898 6255 c-2 -2 -23 -5 -48 -8 -177 -21 -377 -105 -530 -223 -51
-38 -164 -152 -200 -200 -108 -144 -182 -305 -220 -479 -31 -138 -32 -308 -5
-485 15 -91 63 -229 133 -380 59 -127 142 -316 142 -323 0 -4 -319 -8 -709 -9
l-709 -3 109 -245 c60 -135 119 -265 130 -289 11 -24 65 -145 121 -270 103
-234 130 -292 179 -399 16 -35 29 -65 29 -68 0 -3 20 -48 45 -101 25 -52 45
-97 45 -99 0 -2 12 -29 27 -61 82 -178 220 -493 216 -493 -3 0 -42 13 -87 29
-411 145 -895 38 -1200 -265 -351 -349 -428 -866 -195 -1293 136 -247 374
-440 654 -530 50 -16 106 -32 125 -35 19 -3 53 -8 75 -12 73 -13 296 -7 380
11 232 48 425 148 590 307 144 137 250 320 302 515 35 135 41 329 14 460 -26
125 -45 176 -145 397 -47 103 -86 190 -86 191 0 2 -15 36 -33 77 -60 130 -113
248 -242 538 -70 157 -139 310 -152 340 -14 30 -58 129 -98 220 -40 91 -86
194 -103 230 -92 200 -242 541 -242 548 0 14 1088 11 1099 -2 4 -6 57 -119
116 -251 59 -132 115 -258 125 -280 10 -22 73 -164 140 -315 67 -151 135 -304
152 -340 16 -36 55 -121 85 -190 31 -69 71 -158 89 -198 19 -40 34 -74 34 -76
0 -3 15 -37 34 -78 19 -40 52 -113 74 -163 40 -93 313 -704 361 -810 15 -33
47 -106 72 -162 42 -99 59 -117 85 -95 5 5 59 30 121 57 l111 48 -18 41 c-28
66 -140 317 -165 371 -40 87 -76 170 -123 275 -25 57 -188 422 -212 475 -10
22 -37 83 -60 135 -24 52 -60 133 -81 178 -22 46 -39 85 -39 87 0 2 -14 34
-31 72 -17 37 -37 82 -44 98 -7 17 -83 185 -168 375 -85 190 -173 388 -197
440 -63 143 -66 149 -104 234 -20 43 -36 79 -36 81 0 1 224 2 498 3 273 0 507
1 519 1 20 1 21 5 22 146 l1 145 -588 0 -587 0 -19 48 c-11 26 -36 83 -56 127
-32 70 -84 186 -125 280 -7 17 -24 55 -38 85 -136 302 -114 641 58 900 305
458 928 503 1330 95 178 -180 278 -438 272 -697 -2 -64 1 -78 13 -79 8 0 75
-3 149 -5 l133 -5 -5 148 c-3 81 -8 159 -11 173 -4 14 -9 41 -12 60 -8 49 -59
201 -91 268 -169 360 -498 618 -883 692 -55 11 -303 22 -312 15z m-1625 -4340
c136 -13 305 -74 411 -147 173 -120 309 -331 341 -532 18 -114 13 -220 -18
-341 -19 -72 -85 -202 -136 -265 -50 -62 -149 -158 -172 -165 -11 -4 -19 -10
-19 -14 0 -15 -185 -100 -260 -120 -102 -27 -142 -32 -235 -32 -413 2 -757
272 -842 661 -15 68 -8 281 12 345 10 33 17 60 16 60 -2 0 15 37 38 81 62 125
122 200 229 285 128 103 307 173 472 185 41 4 77 8 79 10 2 2 7 2 10 0 3 -2
37 -7 74 -11z"/>
</g>
</svg>
