<svg id="Layer_1" data-name="Layer 1" xmlns="http://www.w3.org/2000/svg" viewBox="0 0 62.06 62.06"><defs><style>.cls-1{fill:#231f20;}.cls-1,.cls-2{stroke:#231f20;stroke-miterlimit:10;stroke-width:2px;}.cls-2{fill:none;}</style></defs><title>header</title><path class="cls-1" d="M42.57,74a8.67,8.67,0,0,1-3-.53,8.18,8.18,0,0,1-4.65-4.22,7.69,7.69,0,0,1-.18-6.16,8.13,8.13,0,0,1,4.4-4.46,8.62,8.62,0,0,1,6.38-.17,8.18,8.18,0,0,1,4.65,4.22,7.93,7.93,0,0,1,.43,1.16h0a7.67,7.67,0,0,1-.26,5A8.13,8.13,0,0,1,46,73.28,8.63,8.63,0,0,1,42.57,74Zm0-15.09a7.65,7.65,0,0,0-3,.62,7.15,7.15,0,0,0-3.88,3.92,6.72,6.72,0,0,0,.16,5.38,7.2,7.2,0,0,0,4.1,3.71,7.64,7.64,0,0,0,5.66-.15,7.15,7.15,0,0,0,3.88-3.92,6.7,6.7,0,0,0,.22-4.37,7,7,0,0,0-.38-1,7.2,7.2,0,0,0-4.1-3.71A7.68,7.68,0,0,0,42.56,58.89Z" transform="translate(-18.94 -19)"/><polygon class="cls-1" points="30.36 44.08 21.24 23.66 42.52 23.66 42.52 24.65 22.75 24.65 31.26 43.67 30.36 44.08"/><path class="cls-1" d="M49.46,38.34a8.48,8.48,0,1,1,15.47-6.91,9.12,9.12,0,0,1,.8,4l-1,0A8.15,8.15,0,0,0,64,31.83a7.5,7.5,0,1,0-13.67,6.11Z" transform="translate(-18.94 -19)"/><rect class="cls-1" x="55.81" y="36.77" width="0.98" height="31.31" transform="translate(-35.43 8.53) rotate(-24.08)"/><rect class="cls-2" x="1" y="1" width="60.06" height="60.06"/></svg>