<svg id="Layer_1" data-name="Layer 1" xmlns="http://www.w3.org/2000/svg" viewBox="0 0 35.61 53.05"><defs><style>.cls-1{fill:#231f20;stroke:#231f20;stroke-miterlimit:10;stroke-width:2px;}</style></defs><title>icon</title><path class="cls-1" d="M42.05,75.52A9.23,9.23,0,0,1,38.87,75a8.71,8.71,0,0,1-5-4.5,8.2,8.2,0,0,1-.19-6.56,8.66,8.66,0,0,1,4.69-4.75,9.19,9.19,0,0,1,6.8-.18,8.71,8.71,0,0,1,5,4.5,8.45,8.45,0,0,1,.46,1.23h0A8.18,8.18,0,0,1,50.37,70a8.66,8.66,0,0,1-4.69,4.75A9.2,9.2,0,0,1,42.05,75.52Zm0-16.08a8.15,8.15,0,0,0-3.21.66,7.62,7.62,0,0,0-4.13,4.18A7.16,7.16,0,0,0,34.87,70a7.67,7.67,0,0,0,4.37,4,8.14,8.14,0,0,0,6-.16,7.62,7.62,0,0,0,4.13-4.18A7.14,7.14,0,0,0,49.63,65a7.43,7.43,0,0,0-.4-1.08,7.67,7.67,0,0,0-4.37-4A8.18,8.18,0,0,0,42,59.44Z" transform="translate(-32.13 -23.48)"/><polygon class="cls-1" points="17.09 40.42 7.37 18.67 30.05 18.67 30.05 19.72 8.98 19.72 18.04 39.99 17.09 40.42"/><path class="cls-1" d="M49.4,37.54a9,9,0,1,1,16.48-7.36,9.72,9.72,0,0,1,.86,4.28l-1,0a8.68,8.68,0,0,0-.76-3.82,8,8,0,1,0-14.57,6.51Z" transform="translate(-32.13 -23.48)"/><rect class="cls-1" x="56.16" y="35.87" width="1.05" height="33.36" transform="translate(-48.64 4.22) rotate(-24.08)"/></svg>