<svg id="Outline" xmlns="http://www.w3.org/2000/svg" viewBox="0 0 1663.48 2275.5"><defs><style>.cls-1{fill:#f6dbb1;}.cls-2{fill:#b3a89a;}.cls-3{fill:#ffc699;}.cls-4{fill:#3b3231;}.cls-5{fill:#e0c8a1;}.cls-6{fill:#3c2c2e;}</style></defs><title>hi-def-colored</title><polygon class="cls-1" points="1658.98 886.5 1663.48 945 1613.98 1044 1591.48 1125 1541.98 1183.5 1523.98 1201.5 1483.48 1206 1375.48 1291.5 1339.48 1309.5 1280.98 1341 1222.48 1354.5 1195.48 1345.5 1186.48 1386 1172.98 1413 1145.98 1413 1159.48 1458 1235.98 1525.5 1294.48 1629 1393.48 1741.5 1420.48 1786.5 1442.98 1899 1460.98 1989 1460.98 2097 1450.15 2275.5 183.46 2275.5 196.48 2155.5 205.48 2088 214.48 1998 227.98 1926 250.48 1836 272.98 1750.5 299.98 1674 322.48 1669.5 335.98 1606.5 398.98 1395 417.21 1341.08 506.98 1075.5 614.98 783 740.98 508.5 782.02 423.26 799.48 387 875.98 283.5 1006.48 139.5 1033.48 117 1046.98 108 1064.98 99 1078.48 99 1091.98 103.5 1105.48 117 1123.48 130.5 1136.98 144 1145.98 157.5 1163.98 162 1177.48 166.5 1253.98 220.5 1280.98 243 1334.98 315 1411.48 418.5 1442.98 499.5 1528.48 612 1618.48 765 1658.98 886.5"/><polygon class="cls-2" points="1006.48 139.5 875.98 283.5 799.48 387 782.02 423.26 781.48 423 731.98 405 673.48 378 619.48 351 565.48 319.5 543.42 305.32 502.48 279 457.48 243 403.48 193.5 371.98 153 344.98 117 326.98 81 313.48 45 295.48 0 628.48 171 704.98 175.5 848.98 144 1006.48 139.5"/><polygon class="cls-3" points="782.02 423.26 740.98 508.5 614.98 783 506.98 1075.5 417.21 1341.08 416.98 1341 398.98 1305 389.98 1282.5 389.98 1264.5 394.48 1215 389.98 1179 367.48 1147.5 290.98 1080 200.98 1026 164.98 985.5 155.98 958.5 155.98 922.5 160.48 895.5 173.98 868.5 196.48 850.5 205.48 837 214.48 819 205.48 801 196.48 787.5 196.48 774 205.48 760.5 218.98 751.5 236.98 742.5 245.98 742.5 259.48 747 272.98 756 263.98 738 250.48 724.5 241.48 715.5 236.98 702 236.98 684 241.48 670.5 254.98 661.5 263.98 657 277.48 657 286.48 657 304.48 643.5 299.98 630 286.48 621 272.98 607.5 272.98 594 277.48 571.5 290.98 558 389.98 513 430.48 441 452.98 400.5 475.48 369 506.98 337.5 533.98 315 542.98 306 543.42 305.32 565.48 319.5 619.48 351 673.48 378 731.98 405 781.48 423 782.02 423.26"/><polygon class="cls-4" points="543.42 305.32 542.98 306 533.98 315 506.98 337.5 475.48 369 452.98 400.5 430.48 441 349.48 391.5 304.48 355.5 268.48 310.5 241.48 256.5 227.98 189 236.98 108 254.98 49.5 268.48 18 281.98 4.5 295.48 0 313.48 45 326.98 81 344.98 117 371.98 153 403.48 193.5 457.48 243 502.48 279 543.42 305.32"/><polygon class="cls-5" points="417.21 1341.08 398.98 1395 335.98 1606.5 322.48 1669.5 299.98 1674 286.48 1674 277.48 1701 259.48 1750.5 214.48 1926 200.98 2002.5 196.48 2070 187.48 2133 178.48 2218.5 173.81 2275.5 13.37 2275.5 56.98 2083.5 92.98 1921.5 137.98 1791 187.48 1620 232.48 1539 367.48 1147.5 389.98 1179 394.48 1215 389.98 1264.5 389.98 1282.5 398.98 1305 416.98 1341 417.21 1341.08"/><polygon class="cls-6" points="299.98 1674 272.98 1750.5 250.48 1836 227.98 1926 214.48 1998 205.48 2088 196.48 2155.5 183.46 2275.5 173.81 2275.5 178.48 2218.5 187.48 2133 196.48 2070 200.98 2002.5 214.48 1926 259.48 1750.5 277.48 1701 286.48 1674 299.98 1674"/><polygon class="cls-6" points="232.48 1539 187.48 1620 137.98 1791 92.98 1921.5 56.98 2083.5 13.37 2275.5 0 2275.5 79.48 1917 137.98 1746 178.48 1606.5 214.48 1548 232.48 1539"/></svg>