<?xml version="1.0" encoding="utf-8"?>
<!-- Generator: Adobe Illustrator 21.1.0, SVG Export Plug-In . SVG Version: 6.00 Build 0)  -->
<svg version="1.1" id="Layer_1" xmlns="http://www.w3.org/2000/svg" xmlns:xlink="http://www.w3.org/1999/xlink" x="0px" y="0px"
	 viewBox="0 0 32 32" style="enable-background:new 0 0 32 32;" xml:space="preserve">
<style type="text/css">
	.st0{fill:#1D1D1D;}
	.st1{fill:#F5F5F5;}
</style>
<g id="Style_2_copy_3">
	<g>
		<path class="st0" d="M16,0C7.2,0,0,7.2,0,16s7.2,16,16,16s16-7.2,16-16S24.8,0,16,0z"/>
	</g>
	<g>
		<path class="st1" d="M14.1,9.3c-1.2,0-2.6,0.1-4,0.3c-1,0.1-1.9,0.3-2.8,0.6c-0.7,0.2-1,1-0.8,1.7s1,1.1,1.7,0.9
			c1.8-0.5,3.6-0.7,5.4-0.8c1.2,0,2.4,0,3.6,0.2c1.4,0.1,2.9,0.4,4.2,0.8c1.2,0.4,2.3,0.8,3.4,1.4c0.6,0.4,1.3,0.2,1.7-0.3
			c0.4-0.5,0.4-1.2-0.1-1.7c-0.2-0.2-0.4-0.3-0.6-0.4c-1.4-0.7-2.8-1.3-4.3-1.7C19.1,9.6,16.7,9.3,14.1,9.3z M14,14.2
			c-0.5,0-0.9,0-1.4,0c-1.5,0.1-2.9,0.3-4.4,0.8c-0.6,0.2-1,0.8-0.8,1.4c0.2,0.6,0.8,0.9,1.4,0.7c0.2,0,0.4-0.1,0.7-0.2
			c2.4-0.6,4.8-0.7,7.2-0.3c2.3,0.3,4.4,1,6.4,2.2c0.6,0.4,1.2,0.1,1.5-0.3c0.3-0.5,0.2-1.2-0.4-1.6c-0.7-0.4-1.4-0.8-2.2-1.1
			C19.4,14.7,16.7,14.2,14,14.2z M13.4,18.9c-0.4,0-0.9,0-1.3,0.1c-1.1,0.1-2.3,0.3-3.4,0.5c-0.5,0.1-0.8,0.6-0.7,1
			c0.1,0.5,0.5,0.8,1.1,0.7c0.3-0.1,0.6-0.1,0.9-0.2c1.2-0.3,2.4-0.4,3.6-0.4c0.8,0,1.6,0,2.4,0.1c1.4,0.1,2.7,0.5,4,1
			c0.6,0.3,1.2,0.6,1.8,0.9c0.4,0.2,0.9,0.1,1.2-0.3c0.2-0.5,0.1-0.9-0.3-1.2c-0.7-0.4-1.4-0.8-2.2-1.1
			C18.1,19.1,15.8,18.8,13.4,18.9z"/>
	</g>
</g>
</svg>
