<svg id="Layer_1" data-name="Layer 1" xmlns="http://www.w3.org/2000/svg" xmlns:xlink="http://www.w3.org/1999/xlink" viewBox="0 0 1953.68 1497"><defs><style>.cls-1{fill:none;}.cls-2{clip-path:url(#clip-path);}.cls-3,.cls-4,.cls-5,.cls-6{fill:#073a5c;}.cls-3{opacity:0.9;}.cls-10,.cls-11,.cls-12,.cls-13,.cls-14,.cls-15,.cls-16,.cls-17,.cls-18,.cls-19,.cls-20,.cls-21,.cls-22,.cls-23,.cls-24,.cls-25,.cls-26,.cls-3,.cls-4,.cls-5,.cls-6,.cls-7,.cls-8,.cls-9{isolation:isolate;}.cls-4{opacity:0.95;}.cls-5{opacity:0.85;}.cls-6{opacity:0.92;}.cls-10,.cls-11,.cls-12,.cls-13,.cls-14,.cls-15,.cls-16,.cls-17,.cls-18,.cls-19,.cls-20,.cls-21,.cls-22,.cls-23,.cls-24,.cls-25,.cls-26,.cls-7,.cls-8,.cls-9{fill:#083e64;}.cls-7{opacity:0.65;}.cls-8{opacity:0.63;}.cls-9{opacity:0.6;}.cls-10{opacity:0.34;}.cls-11{opacity:0.4;}.cls-12{opacity:0.42;}.cls-13{opacity:0.35;}.cls-14{opacity:0.37;}.cls-15{opacity:0.2;}.cls-16{opacity:0.24;}.cls-17{opacity:0.15;}.cls-18{opacity:0.25;}.cls-19{opacity:0.22;}.cls-20{opacity:0.23;}.cls-21{opacity:0.03;}.cls-22{opacity:0.02;}.cls-23{opacity:0.1;}.cls-24{opacity:0.07;}.cls-25{opacity:0.04;}.cls-26{opacity:0.05;}</style><clipPath id="clip-path"><rect class="cls-1" x="-12.16" width="1978" height="1497"/></clipPath></defs><title>cut</title><g class="cls-2"><polygon class="cls-3" points="358.74 1224.3 -12.16 1497 -259.36 1261.7 358.74 1224.3"/></g><g class="cls-2"><polygon class="cls-4" points="2237.84 1186.9 1965.84 1497 1644.44 1355.3 2237.84 1186.9"/></g><g class="cls-2"><polygon class="cls-5" points="-12.16 1497 358.74 1224.3 482.34 1497 -12.16 1497"/></g><g class="cls-2"><polygon class="cls-3" points="729.64 1336.6 482.34 1497 358.74 1224.3 729.64 1336.6"/></g><g class="cls-2"><polygon class="cls-6" points="482.34 1497 729.64 1336.6 976.84 1497 482.34 1497"/></g><g class="cls-2"><polygon class="cls-4" points="1051.04 1205.6 976.84 1497 729.64 1336.6 1051.04 1205.6"/></g><g class="cls-2"><polygon class="cls-3" points="976.84 1497 1051.04 1205.6 1471.34 1497 976.84 1497"/></g><g class="cls-2"><polygon class="cls-5" points="1644.44 1355.3 1471.34 1497 1051.04 1205.6 1644.44 1355.3"/></g><g class="cls-2"><polygon class="cls-3" points="1471.34 1497 1644.44 1355.3 1965.84 1497 1471.34 1497"/></g><g class="cls-2"><polygon class="cls-7" points="1644.44 1355.3 1965.84 951.6 2237.84 1186.9 1644.44 1355.3"/></g><g class="cls-2"><polygon class="cls-7" points="-259.36 1261.7 -12.16 989.1 358.74 1224.3 -259.36 1261.7"/></g><g class="cls-2"><polygon class="cls-8" points="1965.84 951.6 1644.44 1355.3 1471.34 1120.1 1965.84 951.6"/></g><g class="cls-2"><polygon class="cls-7" points="1051.04 1205.6 1471.34 1120.1 1644.44 1355.3 1051.04 1205.6"/></g><g class="cls-2"><polygon class="cls-9" points="1471.34 1120.1 1051.04 1205.6 877.94 970.4 1471.34 1120.1"/></g><g class="cls-2"><polygon class="cls-7" points="729.64 1336.6 877.94 970.4 1051.04 1205.6 729.64 1336.6"/></g><g class="cls-2"><polygon class="cls-9" points="877.94 970.4 729.64 1336.6 482.34 1082.6 877.94 970.4"/></g><g class="cls-2"><polygon class="cls-9" points="358.74 1224.3 482.34 1082.6 729.64 1336.6 358.74 1224.3"/></g><g class="cls-2"><polygon class="cls-9" points="482.34 1082.6 358.74 1224.3 -12.16 989.1 482.34 1082.6"/></g><g class="cls-2"><polygon class="cls-10" points="284.54 866.1 -12.16 989.1 -259.36 791.2 284.54 866.1"/></g><g class="cls-2"><polygon class="cls-11" points="2213.14 791.2 1965.84 951.6 1669.14 735.1 2213.14 791.2"/></g><g class="cls-2"><polygon class="cls-11" points="-12.16 989.1 284.54 866.1 482.34 1082.6 -12.16 989.1"/></g><g class="cls-2"><polygon class="cls-12" points="729.64 791.2 482.34 1082.6 284.54 866.1 729.64 791.2"/></g><g class="cls-2"><polygon class="cls-13" points="482.34 1082.6 729.64 791.2 877.94 970.4 482.34 1082.6"/></g><g class="cls-2"><polygon class="cls-11" points="1224.14 791.2 877.94 970.4 729.64 791.2 1224.14 791.2"/></g><g class="cls-2"><polygon class="cls-14" points="877.94 970.4 1224.14 791.2 1471.34 1120.1 877.94 970.4"/></g><g class="cls-2"><polygon class="cls-11" points="1669.14 735.1 1471.34 1120.1 1224.14 791.2 1669.14 735.1"/></g><g class="cls-2"><polygon class="cls-13" points="1471.34 1120.1 1669.14 735.1 1965.84 951.6 1471.34 1120.1"/></g><g class="cls-2"><polygon class="cls-15" points="1669.14 735.1 1965.84 556 2213.14 791.2 1669.14 735.1"/></g><g class="cls-2"><polygon class="cls-15" points="-259.36 791.2 -12.16 612.1 284.54 866.1 -259.36 791.2"/></g><g class="cls-2"><polygon class="cls-16" points="1965.84 556 1669.14 735.1 1421.94 593.4 1965.84 556"/></g><g class="cls-2"><polygon class="cls-17" points="1224.14 791.2 1421.94 593.4 1669.14 735.1 1224.14 791.2"/></g><g class="cls-2"><polygon class="cls-18" points="1421.94 593.4 1224.14 791.2 976.84 556 1421.94 593.4"/></g><g class="cls-2"><polygon class="cls-19" points="729.64 791.2 976.84 556 1224.14 791.2 729.64 791.2"/></g><g class="cls-2"><polygon class="cls-18" points="976.84 556 729.64 791.2 482.34 687 976.84 556"/></g><g class="cls-2"><polygon class="cls-15" points="284.54 866.1 482.34 687 729.64 791.2 284.54 866.1"/></g><g class="cls-2"><polygon class="cls-20" points="482.34 687 284.54 866.1 -12.16 612.1 482.34 687"/></g><g class="cls-2"><polygon class="cls-21" points="1718.64 155.3 1965.84 556 2213.14 323.7 1718.64 155.3"/></g><g class="cls-2"><polygon class="cls-22" points="-259.36 342.4 -12.16 612.1 235.14 248.9 -259.36 342.4"/></g><g class="cls-2"><polygon class="cls-23" points="1965.84 556 1718.64 155.3 1421.94 593.4 1965.84 556"/></g><g class="cls-2"><polygon class="cls-24" points="1224.14 361.2 1421.94 593.4 1718.64 155.3 1224.14 361.2"/></g><g class="cls-2"><polygon class="cls-23" points="1421.94 593.4 1224.14 361.2 976.84 556 1421.94 593.4"/></g><g class="cls-2"><polygon class="cls-25" points="729.64 417.3 976.84 556 1224.14 361.2 729.64 417.3"/></g><g class="cls-2"><polygon class="cls-23" points="976.84 556 729.64 417.3 482.34 687 976.84 556"/></g><g class="cls-2"><polygon class="cls-26" points="235.04 248.9 482.34 687 729.64 417.3 235.04 248.9"/></g><g class="cls-2"><polygon class="cls-23" points="482.34 687 235.04 248.9 -12.16 612.1 482.34 687"/></g><g class="cls-2"><polygon class="cls-7" points="177.74 1791.2 -220.36 1291.3 -557.16 1582.6 177.74 1791.2"/><polygon class="cls-7" points="2535.64 1675.3 2229.34 1337.6 1770.04 1629 2535.64 1675.3"/><polygon class="cls-8" points="-220.36 1291.3 177.74 1791.2 392.04 1499.8 -220.36 1291.3"/><polygon class="cls-9" points="392.04 1499.8 912.64 1605.8 1127.04 1314.4 392.04 1499.8"/><polygon class="cls-7" points="1310.74 1768 1127.04 1314.4 912.64 1605.8 1310.74 1768"/><polygon class="cls-9" points="1127.04 1314.4 1310.74 1768 1616.94 1453.5 1127.04 1314.4"/><polygon class="cls-9" points="1770.04 1629 1616.94 1453.5 1310.74 1768 1770.04 1629"/><polygon class="cls-9" points="1616.94 1453.5 1770.04 1629 2229.44 1337.6 1616.94 1453.5"/><polygon class="cls-10" points="1861.94 1185.3 2229.34 1337.6 2535.64 1092.6 1861.94 1185.3"/><polygon class="cls-11" points="-526.56 1092.6 -220.36 1291.3 147.14 1023.1 -526.56 1092.6"/><polygon class="cls-11" points="2229.34 1337.6 1861.94 1185.3 1616.94 1453.5 2229.34 1337.6"/><polygon class="cls-12" points="1310.74 1092.6 1616.94 1453.5 1861.94 1185.3 1310.74 1092.6"/><polygon class="cls-13" points="1616.94 1453.5 1310.74 1092.6 1127.04 1314.4 1616.94 1453.5"/><polygon class="cls-11" points="698.34 1092.6 1127.04 1314.4 1310.74 1092.6 698.34 1092.6"/><polygon class="cls-14" points="1127.04 1314.4 698.34 1092.6 392.04 1499.8 1127.04 1314.4"/><polygon class="cls-11" points="147.14 1023.1 392.04 1499.8 698.34 1092.6 147.14 1023.1"/><polygon class="cls-13" points="392.04 1499.8 147.14 1023.1 -220.36 1291.3 392.04 1499.8"/><polygon class="cls-15" points="147.14 1023.1 -220.36 801.2 -526.56 1092.6 147.14 1023.1"/><polygon class="cls-15" points="2535.64 1092.6 2229.34 870.8 1861.94 1185.3 2535.64 1092.6"/><polygon class="cls-16" points="-220.36 801.2 147.14 1023.1 453.34 847.6 -220.36 801.2"/><polygon class="cls-17" points="698.34 1092.6 453.34 847.6 147.14 1023.1 698.34 1092.6"/><polygon class="cls-18" points="453.34 847.6 698.34 1092.6 1004.54 801.2 453.34 847.6"/><polygon class="cls-19" points="1310.74 1092.6 1004.54 801.2 698.34 1092.6 1310.74 1092.6"/><polygon class="cls-18" points="1004.54 801.2 1310.74 1092.6 1616.94 963.5 1004.54 801.2"/><polygon class="cls-15" points="1861.94 1185.3 1616.94 963.5 1310.74 1092.6 1861.94 1185.3"/><polygon class="cls-20" points="1616.94 963.5 1861.94 1185.3 2229.44 870.8 1616.94 963.5"/><polygon class="cls-21" points="85.84 305 -220.36 801.2 -526.56 513.6 85.84 305"/><polygon class="cls-22" points="2535.64 536.8 2229.34 870.8 1923.14 420.9 2535.64 536.8"/><polygon class="cls-23" points="-220.36 801.2 85.84 305 453.34 847.6 -220.36 801.2"/><polygon class="cls-24" points="698.34 559.9 453.34 847.6 85.84 305 698.34 559.9"/><polygon class="cls-23" points="453.34 847.6 698.34 559.9 1004.54 801.2 453.34 847.6"/><polygon class="cls-25" points="1310.74 629.5 1004.54 801.2 698.34 559.9 1310.74 629.5"/><polygon class="cls-23" points="1004.54 801.2 1310.74 629.5 1616.94 963.5 1004.54 801.2"/><polygon class="cls-26" points="1923.14 420.9 1616.94 963.5 1310.74 629.5 1923.14 420.9"/><polygon class="cls-23" points="1616.94 963.5 1923.14 420.9 2229.44 870.8 1616.94 963.5"/></g><g class="cls-2"><polygon class="cls-7" points="1652.34 1866 2050.44 1366.1 2387.24 1657.5 1652.34 1866"/><polygon class="cls-7" points="-705.56 1750.2 -399.36 1412.5 60.04 1703.8 -705.56 1750.2"/><polygon class="cls-8" points="2050.44 1366.1 1652.34 1866 1437.94 1574.7 2050.44 1366.1"/><polygon class="cls-9" points="1437.94 1574.7 917.44 1680.6 703.04 1389.3 1437.94 1574.7"/><polygon class="cls-7" points="519.34 1842.9 703.04 1389.3 917.44 1680.6 519.34 1842.9"/><polygon class="cls-9" points="703.04 1389.3 519.34 1842.9 213.14 1528.3 703.04 1389.3"/><polygon class="cls-9" points="213.14 1528.3 60.04 1703.8 -399.36 1412.5 213.14 1528.3"/><polygon class="cls-11" points="2356.64 1167.4 2050.44 1366.1 1682.94 1097.9 2356.64 1167.4"/><polygon class="cls-11" points="-399.36 1412.5 -31.86 1260.1 213.14 1528.3 -399.36 1412.5"/><polygon class="cls-12" points="519.34 1167.4 213.14 1528.3 -31.86 1260.1 519.34 1167.4"/><polygon class="cls-13" points="213.14 1528.3 519.34 1167.4 703.04 1389.3 213.14 1528.3"/><polygon class="cls-11" points="1131.74 1167.4 703.04 1389.3 519.34 1167.4 1131.74 1167.4"/><polygon class="cls-14" points="703.04 1389.3 1131.74 1167.4 1437.94 1574.7 703.04 1389.3"/><polygon class="cls-11" points="1682.94 1097.9 1437.94 1574.7 1131.74 1167.4 1682.94 1097.9"/><polygon class="cls-13" points="1437.94 1574.7 1682.94 1097.9 2050.44 1366.1 1437.94 1574.7"/><polygon class="cls-15" points="1682.94 1097.9 2050.44 876.1 2356.64 1167.4 1682.94 1097.9"/><polygon class="cls-16" points="2050.44 876.1 1682.94 1097.9 1376.74 922.4 2050.44 876.1"/><polygon class="cls-17" points="1131.74 1167.4 1376.74 922.4 1682.94 1097.9 1131.74 1167.4"/><polygon class="cls-18" points="1376.74 922.4 1131.74 1167.4 825.54 876.1 1376.74 922.4"/><polygon class="cls-19" points="519.34 1167.4 825.54 876.1 1131.74 1167.4 519.34 1167.4"/><polygon class="cls-18" points="825.54 876.1 519.34 1167.4 213.14 1038.3 825.54 876.1"/><polygon class="cls-15" points="-31.86 1260.1 213.14 1038.3 519.34 1167.4 -31.86 1260.1"/><polygon class="cls-20" points="213.14 1038.3 -31.86 1260.1 -399.36 945.6 213.14 1038.3"/><polygon class="cls-21" points="1744.24 379.9 2050.44 876.1 2356.64 588.4 1744.24 379.9"/><polygon class="cls-23" points="2050.44 876.1 1744.24 379.9 1376.74 922.4 2050.44 876.1"/><polygon class="cls-24" points="1131.74 634.8 1376.74 922.4 1744.24 379.9 1131.74 634.8"/><polygon class="cls-23" points="1376.74 922.4 1131.74 634.8 825.54 876.1 1376.74 922.4"/><polygon class="cls-25" points="519.34 704.3 825.54 876.1 1131.74 634.8 519.34 704.3"/><polygon class="cls-23" points="825.54 876.1 519.34 704.3 213.14 1038.3 825.54 876.1"/><polygon class="cls-26" points="-93.16 495.7 213.14 1038.3 519.34 704.3 -93.16 495.7"/><polygon class="cls-23" points="213.14 1038.3 -93.16 495.7 -399.36 945.6 213.14 1038.3"/></g></svg>