<?xml version="1.0" encoding="utf-8"?>
<!-- Generator: Adobe Illustrator 21.1.0, SVG Export Plug-In . SVG Version: 6.00 Build 0)  -->
<svg version="1.1" id="Layer_1" xmlns="http://www.w3.org/2000/svg" xmlns:xlink="http://www.w3.org/1999/xlink" x="0px" y="0px"
	 viewBox="0 0 1966.3 1512" style="enable-background:new 0 0 1966.3 1512;" xml:space="preserve">
<style type="text/css">
	.st0{clip-path:url(#SVGID_2_);}
	.st1{opacity:0.9;fill:#073A5C;enable-background:new    ;}
	.st2{opacity:0.95;fill:#073A5C;enable-background:new    ;}
	.st3{opacity:0.85;fill:#073A5C;enable-background:new    ;}
	.st4{opacity:0.92;fill:#073A5C;enable-background:new    ;}
	.st5{opacity:0.65;fill:#083E64;enable-background:new    ;}
	.st6{opacity:0.63;fill:#083E64;enable-background:new    ;}
	.st7{opacity:0.6;fill:#083E64;enable-background:new    ;}
	.st8{opacity:0.34;fill:#083E64;enable-background:new    ;}
	.st9{opacity:0.4;fill:#083E64;enable-background:new    ;}
	.st10{opacity:0.42;fill:#083E64;enable-background:new    ;}
	.st11{opacity:0.35;fill:#083E64;enable-background:new    ;}
	.st12{opacity:0.37;fill:#083E64;enable-background:new    ;}
	.st13{opacity:0.2;fill:#083E64;enable-background:new    ;}
	.st14{opacity:0.24;fill:#083E64;enable-background:new    ;}
	.st15{opacity:0.15;fill:#083E64;enable-background:new    ;}
	.st16{opacity:0.25;fill:#083E64;enable-background:new    ;}
	.st17{opacity:0.22;fill:#083E64;enable-background:new    ;}
	.st18{opacity:0.23;fill:#083E64;enable-background:new    ;}
	.st19{opacity:3.000000e-02;fill:#083E64;enable-background:new    ;}
	.st20{opacity:2.000000e-02;fill:#083E64;enable-background:new    ;}
	.st21{opacity:0.1;fill:#083E64;enable-background:new    ;}
	.st22{opacity:7.000000e-02;fill:#083E64;enable-background:new    ;}
	.st23{opacity:4.000000e-02;fill:#083E64;enable-background:new    ;}
	.st24{opacity:5.000000e-02;fill:#083E64;enable-background:new    ;}
</style>
<title>vector-wave</title>
<g>
	<defs>
		<rect id="SVGID_1_" x="0" y="-0.3" width="1966.3" height="1512.2"/>
	</defs>
	<clipPath id="SVGID_2_">
		<use xlink:href="#SVGID_1_"  style="overflow:visible;"/>
	</clipPath>
	<g class="st0">
		<polygon class="st1" points="368.7,1236.5 0,1511.9 -245.8,1274.3 		"/>
		<polygon class="st2" points="2236.7,1198.7 1966.3,1511.9 1646.8,1368.8 		"/>
		<polygon class="st3" points="0,1511.9 368.7,1236.5 491.6,1511.9 		"/>
		<polygon class="st1" points="737.4,1349.9 491.6,1511.9 368.7,1236.5 		"/>
		<polygon class="st4" points="491.6,1511.9 737.4,1349.9 983.2,1511.9 		"/>
		<polygon class="st2" points="1056.9,1217.6 983.2,1511.9 737.4,1349.9 		"/>
		<polygon class="st1" points="983.2,1511.9 1056.9,1217.6 1474.7,1511.9 		"/>
		<polygon class="st3" points="1646.8,1368.8 1474.7,1511.9 1056.9,1217.6 		"/>
		<polygon class="st1" points="1474.7,1511.9 1646.8,1368.8 1966.3,1511.9 		"/>
		<polygon class="st5" points="1646.8,1368.8 1966.3,961 2236.7,1198.7 		"/>
		<polygon class="st5" points="-245.8,1274.3 0,998.8 368.7,1236.5 		"/>
		<polygon class="st6" points="1966.3,961 1646.8,1368.8 1474.7,1131.1 		"/>
		<polygon class="st5" points="1056.9,1217.6 1474.7,1131.1 1646.8,1368.8 		"/>
		<polygon class="st7" points="1474.7,1131.1 1056.9,1217.6 884.8,979.9 		"/>
		<polygon class="st5" points="737.4,1349.9 884.8,979.9 1056.9,1217.6 		"/>
		<polygon class="st7" points="884.8,979.9 737.4,1349.9 491.6,1093.3 		"/>
		<polygon class="st7" points="368.7,1236.5 491.6,1093.3 737.4,1349.9 		"/>
		<polygon class="st7" points="491.6,1093.3 368.7,1236.5 0,998.8 		"/>
		<polygon class="st8" points="294.9,874.6 0,998.8 -245.8,799 		"/>
		<polygon class="st9" points="2212.1,799 1966.3,961 1671.4,742.3 		"/>
		<polygon class="st9" points="0,998.8 294.9,874.6 491.6,1093.3 		"/>
		<polygon class="st10" points="737.4,799 491.6,1093.3 294.9,874.6 		"/>
		<polygon class="st11" points="491.6,1093.3 737.4,799 884.8,979.9 		"/>
		<polygon class="st9" points="1228.9,799 884.8,979.9 737.4,799 		"/>
		<polygon class="st12" points="884.8,979.9 1228.9,799 1474.7,1131.1 		"/>
		<polygon class="st9" points="1671.4,742.3 1474.7,1131.1 1228.9,799 		"/>
		<polygon class="st11" points="1474.7,1131.1 1671.4,742.3 1966.3,961 		"/>
		<polygon class="st13" points="1671.4,742.3 1966.3,561.3 2212.1,799 		"/>
		<polygon class="st13" points="-245.8,799 0,618 294.9,874.6 		"/>
		<polygon class="st14" points="1966.3,561.3 1671.4,742.3 1425.6,599.1 		"/>
		<polygon class="st15" points="1228.9,799 1425.6,599.1 1671.4,742.3 		"/>
		<polygon class="st16" points="1425.6,599.1 1228.9,799 983.2,561.3 		"/>
		<polygon class="st17" points="737.4,799 983.2,561.3 1228.9,799 		"/>
		<polygon class="st16" points="983.2,561.3 737.4,799 491.6,693.6 		"/>
		<polygon class="st13" points="294.9,874.6 491.6,693.6 737.4,799 		"/>
		<polygon class="st18" points="491.6,693.6 294.9,874.6 0,618 		"/>
		<polygon class="st19" points="1720.5,156.6 1966.3,561.3 2212.1,326.7 		"/>
		<polygon class="st20" points="-245.8,345.6 0,618 245.8,251.1 		"/>
		<polygon class="st21" points="1966.3,561.3 1720.5,156.6 1425.6,599.1 		"/>
		<polygon class="st22" points="1228.9,364.5 1425.6,599.1 1720.5,156.6 		"/>
		<polygon class="st21" points="1425.6,599.1 1228.9,364.5 983.2,561.3 		"/>
		<polygon class="st23" points="737.4,421.2 983.2,561.3 1228.9,364.5 		"/>
		<polygon class="st21" points="983.2,561.3 737.4,421.2 491.6,693.6 		"/>
		<polygon class="st24" points="245.8,251.1 491.6,693.6 737.4,421.2 		"/>
		<polygon class="st21" points="491.6,693.6 245.8,251.1 0,618 		"/>
		<polygon class="st1" points="1771.7,1645.2 2228.3,1986.4 2532.7,1692 		"/>
		<polygon class="st2" points="-541.8,1598.4 -207,1986.4 188.7,1809.1 		"/>
		<polygon class="st3" points="2228.3,1986.4 1771.7,1645.2 1619.5,1986.4 		"/>
		<polygon class="st1" points="1315.1,1785.7 1619.5,1986.4 1771.7,1645.2 		"/>
		<polygon class="st4" points="1619.5,1986.4 1315.1,1785.7 1010.7,1986.4 		"/>
		<polygon class="st2" points="919.3,1621.8 1010.7,1986.4 1315.1,1785.7 		"/>
		<polygon class="st1" points="1010.7,1986.4 919.3,1621.8 401.8,1986.4 		"/>
		<polygon class="st3" points="188.7,1809.1 401.8,1986.4 919.3,1621.8 		"/>
		<polygon class="st1" points="401.8,1986.4 188.7,1809.1 -207,1986.4 		"/>
		<polygon class="st5" points="188.7,1809.1 -207,1304.1 -541.8,1598.4 		"/>
		<polygon class="st5" points="2532.7,1692 2228.3,1350.9 1771.7,1645.2 		"/>
		<polygon class="st6" points="-207,1304.1 188.7,1809.1 401.8,1514.8 		"/>
		<polygon class="st5" points="919.3,1621.8 401.8,1514.8 188.7,1809.1 		"/>
		<polygon class="st7" points="401.8,1514.8 919.3,1621.8 1132.4,1327.5 		"/>
		<polygon class="st5" points="1315.1,1785.7 1132.4,1327.5 919.3,1621.8 		"/>
		<polygon class="st7" points="1132.4,1327.5 1315.1,1785.7 1619.5,1468 		"/>
		<polygon class="st7" points="1771.7,1645.2 1619.5,1468 1315.1,1785.7 		"/>
		<polygon class="st7" points="1619.5,1468 1771.7,1645.2 2228.3,1350.9 		"/>
		<polygon class="st8" points="1863,1197 2228.3,1350.9 2532.7,1103.4 		"/>
		<polygon class="st9" points="-511.4,1103.4 -207,1304.1 158.3,1033.2 		"/>
		<polygon class="st9" points="2228.3,1350.9 1863,1197 1619.5,1468 		"/>
		<polygon class="st10" points="1315.1,1103.4 1619.5,1468 1863,1197 		"/>
		<polygon class="st11" points="1619.5,1468 1315.1,1103.4 1132.4,1327.5 		"/>
		<polygon class="st9" points="706.2,1103.4 1132.4,1327.5 1315.1,1103.4 		"/>
		<polygon class="st12" points="1132.4,1327.5 706.2,1103.4 401.8,1514.8 		"/>
		<polygon class="st9" points="158.3,1033.2 401.8,1514.8 706.2,1103.4 		"/>
		<polygon class="st11" points="401.8,1514.8 158.3,1033.2 -207,1304.1 		"/>
		<polygon class="st13" points="158.3,1033.2 -207,809.1 -511.4,1103.4 		"/>
		<polygon class="st13" points="2532.7,1103.4 2228.3,879.3 1863,1197 		"/>
		<polygon class="st14" points="-207,809.1 158.3,1033.2 462.7,855.9 		"/>
		<polygon class="st15" points="706.3,1103.4 462.7,855.9 158.3,1033.2 		"/>
		<polygon class="st16" points="462.7,855.9 706.3,1103.4 1010.7,809.1 		"/>
		<polygon class="st17" points="1315.1,1103.4 1010.7,809.1 706.3,1103.4 		"/>
		<polygon class="st16" points="1010.7,809.1 1315.1,1103.4 1619.5,972.9 		"/>
		<polygon class="st13" points="1863,1197 1619.5,972.9 1315.1,1103.4 		"/>
		<polygon class="st18" points="1619.5,972.9 1863,1197 2228.3,879.3 		"/>
		<polygon class="st19" points="97.4,307.8 -207,809.1 -511.4,518.5 		"/>
		<polygon class="st20" points="2532.7,541.9 2228.3,879.3 1923.9,424.9 		"/>
		<polygon class="st21" points="-207,809.1 97.4,307.8 462.7,855.9 		"/>
		<polygon class="st22" points="706.3,565.3 462.7,855.9 97.4,307.8 		"/>
		<polygon class="st21" points="462.7,855.9 706.3,565.3 1010.7,809.1 		"/>
		<polygon class="st23" points="1315.1,635.6 1010.7,809.1 706.3,565.3 		"/>
		<polygon class="st21" points="1010.7,809.1 1315.1,635.6 1619.5,972.9 		"/>
		<polygon class="st24" points="1923.9,424.9 1619.5,972.9 1315.1,635.6 		"/>
		<polygon class="st21" points="1619.5,972.9 1923.9,424.9 2228.3,879.3 		"/>
		<polygon class="st1" points="71.7,1720.8 -384.9,2062 -689.3,1767.7 		"/>
		<polygon class="st2" points="2385.3,1674 2050.4,2062 1654.7,1884.7 		"/>
		<polygon class="st3" points="-384.9,2062 71.7,1720.8 223.9,2062 		"/>
		<polygon class="st1" points="528.3,1861.3 223.9,2062 71.7,1720.8 		"/>
		<polygon class="st4" points="223.9,2062 528.3,1861.3 832.7,2062 		"/>
		<polygon class="st2" points="924.1,1697.4 832.7,2062 528.3,1861.3 		"/>
		<polygon class="st1" points="832.7,2062 924.1,1697.4 1441.6,2062 		"/>
		<polygon class="st3" points="1654.7,1884.7 1441.6,2062 924.1,1697.4 		"/>
		<polygon class="st1" points="1441.6,2062 1654.7,1884.7 2050.4,2062 		"/>
		<polygon class="st5" points="1654.7,1884.7 2050.4,1379.7 2385.3,1674 		"/>
		<polygon class="st5" points="-689.3,1767.7 -384.9,1426.5 71.7,1720.8 		"/>
		<polygon class="st6" points="2050.4,1379.7 1654.7,1884.7 1441.6,1590.4 		"/>
		<polygon class="st5" points="924.1,1697.4 1441.6,1590.4 1654.7,1884.7 		"/>
		<polygon class="st7" points="1441.6,1590.4 924.1,1697.4 711,1403.1 		"/>
		<polygon class="st5" points="528.3,1861.3 711,1403.1 924.1,1697.4 		"/>
		<polygon class="st7" points="711,1403.1 528.3,1861.3 223.9,1543.6 		"/>
		<polygon class="st7" points="71.7,1720.8 223.9,1543.6 528.3,1861.3 		"/>
		<polygon class="st7" points="223.9,1543.6 71.7,1720.8 -384.9,1426.5 		"/>
		<polygon class="st8" points="-19.6,1272.7 -384.9,1426.5 -689.3,1179 		"/>
		<polygon class="st9" points="2354.8,1179 2050.4,1379.7 1685.1,1108.8 		"/>
		<polygon class="st9" points="-384.9,1426.5 -19.6,1272.7 223.9,1543.6 		"/>
		<polygon class="st10" points="528.3,1179 223.9,1543.6 -19.6,1272.7 		"/>
		<polygon class="st11" points="223.9,1543.6 528.3,1179 711,1403.1 		"/>
		<polygon class="st9" points="1137.2,1179 711,1403.1 528.3,1179 		"/>
		<polygon class="st12" points="711,1403.1 1137.2,1179 1441.6,1590.4 		"/>
		<polygon class="st9" points="1685.1,1108.8 1441.6,1590.4 1137.2,1179 		"/>
		<polygon class="st11" points="1441.6,1590.4 1685.1,1108.8 2050.4,1379.7 		"/>
		<polygon class="st13" points="1685.1,1108.8 2050.4,884.7 2354.8,1179 		"/>
		<polygon class="st13" points="-689.3,1179 -384.9,954.9 -19.6,1272.7 		"/>
		<polygon class="st14" points="2050.4,884.7 1685.1,1108.8 1380.7,931.5 		"/>
		<polygon class="st15" points="1137.1,1179 1380.7,931.5 1685.1,1108.8 		"/>
		<polygon class="st16" points="1380.7,931.5 1137.1,1179 832.7,884.7 		"/>
		<polygon class="st17" points="528.3,1179 832.7,884.7 1137.1,1179 		"/>
		<polygon class="st16" points="832.7,884.7 528.3,1179 223.9,1048.6 		"/>
		<polygon class="st13" points="-19.6,1272.7 223.9,1048.6 528.3,1179 		"/>
		<polygon class="st18" points="223.9,1048.6 -19.6,1272.7 -384.9,954.9 		"/>
		<polygon class="st19" points="1746,383.4 2050.4,884.7 2354.8,594.1 		"/>
		<polygon class="st20" points="-689.3,617.5 -384.9,954.9 -80.5,500.5 		"/>
		<polygon class="st21" points="2050.4,884.7 1746,383.4 1380.7,931.5 		"/>
		<polygon class="st22" points="1137.1,640.9 1380.7,931.5 1746,383.4 		"/>
		<polygon class="st21" points="1380.7,931.5 1137.1,640.9 832.7,884.7 		"/>
		<polygon class="st23" points="528.3,711.2 832.7,884.7 1137.1,640.9 		"/>
		<polygon class="st21" points="832.7,884.7 528.3,711.2 223.9,1048.6 		"/>
		<polygon class="st24" points="-80.5,500.5 223.9,1048.6 528.3,711.2 		"/>
		<polygon class="st21" points="223.9,1048.6 -80.5,500.5 -384.9,954.9 		"/>
	</g>
</g>
</svg>
